<?xml version="1.0" standalone="no"?>
<!DOCTYPE svg PUBLIC "-//W3C//DTD SVG 20010904//EN"
 "http://www.w3.org/TR/2001/REC-SVG-20010904/DTD/svg10.dtd">
<svg version="1.0" xmlns="http://www.w3.org/2000/svg"
 width="64.000000pt" height="64.000000pt" viewBox="0 0 64.000000 64.000000"
 preserveAspectRatio="xMidYMid meet">

<g transform="translate(0.000000,64.000000) scale(0.100000,-0.100000)"
fill="#000000" stroke="none">
<path d="M123 620 c-4 -15 -14 -20 -42 -20 -26 0 -44 -7 -59 -23 -21 -23 -22
-30 -22 -278 0 -254 0 -256 23 -277 23 -21 30 -22 298 -22 275 0 276 0 297 23
21 23 22 30 22 278 0 254 0 256 -23 277 -15 14 -36 22 -59 22 -27 0 -37 5 -41
20 -3 11 -10 20 -17 20 -7 0 -14 -9 -17 -20 -4 -16 -14 -20 -43 -20 -29 0 -39
4 -43 20 -3 11 -10 20 -17 20 -7 0 -14 -9 -17 -20 -4 -16 -14 -20 -43 -20 -29
0 -39 4 -43 20 -3 11 -10 20 -17 20 -7 0 -14 -9 -17 -20 -4 -16 -14 -20 -43
-20 -29 0 -39 4 -43 20 -3 11 -10 20 -17 20 -7 0 -14 -9 -17 -20z m0 -80 c3
-11 10 -20 17 -20 7 0 14 9 17 20 4 16 14 20 43 20 29 0 39 -4 43 -20 3 -11
10 -20 17 -20 7 0 14 9 17 20 4 16 14 20 43 20 29 0 39 -4 43 -20 3 -11 10
-20 17 -20 7 0 14 9 17 20 4 16 14 20 43 20 29 0 39 -4 43 -20 7 -26 27 -26
34 1 5 16 12 19 42 17 34 -3 36 -5 39 -40 l3 -38 -280 0 -281 0 0 33 c0 42 5
47 46 47 23 0 33 -5 37 -20z m475 -297 l-3 -198 -275 0 -275 0 -3 198 -2 197
280 0 280 0 -2 -197z"/>
<path d="M94 367 c-3 -8 -4 -34 -2 -58 l3 -44 55 0 55 0 0 55 0 55 -53 3 c-38
2 -54 -1 -58 -11z m76 -47 c0 -13 -7 -20 -20 -20 -13 0 -20 7 -20 20 0 13 7
20 20 20 13 0 20 -7 20 -20z"/>
<path d="M434 367 c-3 -8 -4 -34 -2 -58 l3 -44 55 0 55 0 0 55 0 55 -53 3
c-38 2 -54 -1 -58 -11z m76 -47 c0 -13 -7 -20 -20 -20 -13 0 -20 7 -20 20 0
13 7 20 20 20 13 0 20 -7 20 -20z"/>
<path d="M332 345 c-22 -18 -32 -21 -40 -13 -9 9 -15 9 -24 0 -10 -10 -7 -18
13 -38 l26 -26 37 32 c36 32 45 53 27 64 -5 4 -22 -5 -39 -19z"/>
<path d="M94 207 c-3 -8 -4 -34 -2 -58 l3 -44 55 0 55 0 0 55 0 55 -53 3 c-38
2 -54 -1 -58 -11z m76 -47 c0 -13 -7 -20 -20 -20 -13 0 -20 7 -20 20 0 13 7
20 20 20 13 0 20 -7 20 -20z"/>
<path d="M264 207 c-3 -8 -4 -34 -2 -58 l3 -44 55 0 55 0 0 55 0 55 -53 3
c-38 2 -54 -1 -58 -11z m76 -47 c0 -13 -7 -20 -20 -20 -13 0 -20 7 -20 20 0
13 7 20 20 20 13 0 20 -7 20 -20z"/>
<path d="M434 207 c-3 -8 -4 -34 -2 -58 l3 -44 55 0 55 0 0 55 0 55 -53 3
c-38 2 -54 -1 -58 -11z m76 -47 c0 -13 -7 -20 -20 -20 -13 0 -20 7 -20 20 0
13 7 20 20 20 13 0 20 -7 20 -20z"/>
</g>
</svg>
